<svg width="67" height="20" viewBox="0 0 67 20" fill="none" xmlns="http://www.w3.org/2000/svg">
<path d="M11.0234 13.2227H15.125C15.0703 14.4102 14.75 15.457 14.1641 16.3633C13.5781 17.2695 12.7656 17.9766 11.7266 18.4844C10.6953 18.9844 9.47656 19.2344 8.07031 19.2344C6.92969 19.2344 5.91016 19.043 5.01172 18.6602C4.12109 18.2773 3.36328 17.7266 2.73828 17.0078C2.12109 16.2891 1.64844 15.418 1.32031 14.3945C1 13.3711 0.839844 12.2188 0.839844 10.9375V10.0117C0.839844 8.73047 1.00781 7.57812 1.34375 6.55469C1.6875 5.52344 2.17188 4.64844 2.79688 3.92969C3.42969 3.20312 4.1875 2.64844 5.07031 2.26562C5.95312 1.88281 6.93359 1.69141 8.01172 1.69141C9.49609 1.69141 10.75 1.95703 11.7734 2.48828C12.7969 3.01953 13.5898 3.75 14.1523 4.67969C14.7148 5.60156 15.0469 6.65234 15.1484 7.83203H11.0469C11.0312 7.19141 10.9219 6.65625 10.7188 6.22656C10.5156 5.78906 10.1953 5.46094 9.75781 5.24219C9.32031 5.02344 8.73828 4.91406 8.01172 4.91406C7.50391 4.91406 7.0625 5.00781 6.6875 5.19531C6.3125 5.38281 6 5.67969 5.75 6.08594C5.5 6.49219 5.3125 7.01953 5.1875 7.66797C5.07031 8.30859 5.01172 9.08203 5.01172 9.98828V10.9375C5.01172 11.8438 5.06641 12.6172 5.17578 13.2578C5.28516 13.8984 5.46094 14.4219 5.70312 14.8281C5.94531 15.2344 6.25781 15.5352 6.64062 15.7305C7.03125 15.918 7.50781 16.0117 8.07031 16.0117C8.69531 16.0117 9.22266 15.9141 9.65234 15.7188C10.082 15.5156 10.4141 15.2109 10.6484 14.8047C10.8828 14.3906 11.0078 13.8633 11.0234 13.2227ZM20.8672 9.46094V19H16.918V6.32031H20.6094L20.8672 9.46094ZM24.6172 6.22656L24.5469 9.89453C24.3906 9.87891 24.1797 9.85938 23.9141 9.83594C23.6484 9.8125 23.4258 9.80078 23.2461 9.80078C22.7852 9.80078 22.3867 9.85547 22.0508 9.96484C21.7227 10.0664 21.4492 10.2227 21.2305 10.4336C21.0195 10.6367 20.8633 10.8945 20.7617 11.207C20.668 11.5195 20.625 11.8828 20.6328 12.2969L19.918 11.8281C19.918 10.9766 20 10.2031 20.1641 9.50781C20.3359 8.80469 20.5781 8.19922 20.8906 7.69141C21.2031 7.17578 21.582 6.78125 22.0273 6.50781C22.4727 6.22656 22.9727 6.08594 23.5273 6.08594C23.7227 6.08594 23.9141 6.09766 24.1016 6.12109C24.2969 6.14453 24.4688 6.17969 24.6172 6.22656ZM32.2109 15.8125V10.5859C32.2109 10.2266 32.1602 9.91797 32.0586 9.66016C31.957 9.40234 31.7969 9.20312 31.5781 9.0625C31.3594 8.91406 31.0664 8.83984 30.6992 8.83984C30.4023 8.83984 30.1484 8.89062 29.9375 8.99219C29.7266 9.09375 29.5664 9.24609 29.457 9.44922C29.3477 9.65234 29.293 9.91016 29.293 10.2227H25.3438C25.3438 9.63672 25.4727 9.09375 25.7305 8.59375C25.9961 8.08594 26.3711 7.64453 26.8555 7.26953C27.3477 6.89453 27.9336 6.60547 28.6133 6.40234C29.3008 6.19141 30.0664 6.08594 30.9102 6.08594C31.918 6.08594 32.8164 6.25391 33.6055 6.58984C34.4023 6.92578 35.0312 7.42969 35.4922 8.10156C35.9531 8.76562 36.1836 9.60156 36.1836 10.6094V15.8008C36.1836 16.6289 36.2305 17.2578 36.3242 17.6875C36.418 18.1094 36.5508 18.4805 36.7227 18.8008V19H32.7617C32.5742 18.6094 32.4336 18.1328 32.3398 17.5703C32.2539 17 32.2109 16.4141 32.2109 15.8125ZM32.6914 11.2539L32.7148 13.3633H30.9688C30.6016 13.3633 30.2891 13.4141 30.0312 13.5156C29.7812 13.6172 29.5781 13.7578 29.4219 13.9375C29.2734 14.1094 29.1641 14.3047 29.0938 14.5234C29.0312 14.7422 29 14.9727 29 15.2148C29 15.4492 29.0547 15.6602 29.1641 15.8477C29.2812 16.0273 29.4375 16.168 29.6328 16.2695C29.8281 16.3711 30.0469 16.4219 30.2891 16.4219C30.7266 16.4219 31.0977 16.3398 31.4023 16.1758C31.7148 16.0039 31.9531 15.7969 32.1172 15.5547C32.2812 15.3125 32.3633 15.0859 32.3633 14.875L33.2305 16.4922C33.0742 16.8047 32.8945 17.1211 32.6914 17.4414C32.4961 17.7617 32.25 18.0586 31.9531 18.332C31.6641 18.5977 31.3086 18.8164 30.8867 18.9883C30.4648 19.1523 29.9531 19.2344 29.3516 19.2344C28.5703 19.2344 27.8516 19.0742 27.1953 18.7539C26.5469 18.4336 26.0273 17.9883 25.6367 17.418C25.2461 16.8398 25.0508 16.1758 25.0508 15.4258C25.0508 14.7695 25.168 14.1836 25.4023 13.668C25.6445 13.1523 26.0078 12.7148 26.4922 12.3555C26.9766 11.9961 27.5938 11.7227 28.3438 11.5352C29.0938 11.3477 29.9766 11.2539 30.9922 11.2539H32.6914ZM44.9609 15.8125V10.5859C44.9609 10.2266 44.9102 9.91797 44.8086 9.66016C44.707 9.40234 44.5469 9.20312 44.3281 9.0625C44.1094 8.91406 43.8164 8.83984 43.4492 8.83984C43.1523 8.83984 42.8984 8.89062 42.6875 8.99219C42.4766 9.09375 42.3164 9.24609 42.207 9.44922C42.0977 9.65234 42.043 9.91016 42.043 10.2227H38.0938C38.0938 9.63672 38.2227 9.09375 38.4805 8.59375C38.7461 8.08594 39.1211 7.64453 39.6055 7.26953C40.0977 6.89453 40.6836 6.60547 41.3633 6.40234C42.0508 6.19141 42.8164 6.08594 43.6602 6.08594C44.668 6.08594 45.5664 6.25391 46.3555 6.58984C47.1523 6.92578 47.7812 7.42969 48.2422 8.10156C48.7031 8.76562 48.9336 9.60156 48.9336 10.6094V15.8008C48.9336 16.6289 48.9805 17.2578 49.0742 17.6875C49.168 18.1094 49.3008 18.4805 49.4727 18.8008V19H45.5117C45.3242 18.6094 45.1836 18.1328 45.0898 17.5703C45.0039 17 44.9609 16.4141 44.9609 15.8125ZM45.4414 11.2539L45.4648 13.3633H43.7188C43.3516 13.3633 43.0391 13.4141 42.7812 13.5156C42.5312 13.6172 42.3281 13.7578 42.1719 13.9375C42.0234 14.1094 41.9141 14.3047 41.8438 14.5234C41.7812 14.7422 41.75 14.9727 41.75 15.2148C41.75 15.4492 41.8047 15.6602 41.9141 15.8477C42.0312 16.0273 42.1875 16.168 42.3828 16.2695C42.5781 16.3711 42.7969 16.4219 43.0391 16.4219C43.4766 16.4219 43.8477 16.3398 44.1523 16.1758C44.4648 16.0039 44.7031 15.7969 44.8672 15.5547C45.0312 15.3125 45.1133 15.0859 45.1133 14.875L45.9805 16.4922C45.8242 16.8047 45.6445 17.1211 45.4414 17.4414C45.2461 17.7617 45 18.0586 44.7031 18.332C44.4141 18.5977 44.0586 18.8164 43.6367 18.9883C43.2148 19.1523 42.7031 19.2344 42.1016 19.2344C41.3203 19.2344 40.6016 19.0742 39.9453 18.7539C39.2969 18.4336 38.7773 17.9883 38.3867 17.418C37.9961 16.8398 37.8008 16.1758 37.8008 15.4258C37.8008 14.7695 37.918 14.1836 38.1523 13.668C38.3945 13.1523 38.7578 12.7148 39.2422 12.3555C39.7266 11.9961 40.3438 11.7227 41.0938 11.5352C41.8438 11.3477 42.7266 11.2539 43.7422 11.2539H45.4414ZM55.9648 19H51.9922V5.28906C51.9922 4.30469 52.1914 3.47656 52.5898 2.80469C52.9883 2.13281 53.5508 1.625 54.2773 1.28125C55.0039 0.929688 55.8633 0.753906 56.8555 0.753906C57.1992 0.753906 57.5234 0.777344 57.8281 0.824219C58.1328 0.871094 58.4297 0.929688 58.7188 1L58.7305 3.90625C58.5898 3.86719 58.4453 3.83984 58.2969 3.82422C58.1484 3.80859 57.9648 3.80078 57.7461 3.80078C57.3633 3.80078 57.0391 3.85938 56.7734 3.97656C56.5078 4.08594 56.3047 4.25391 56.1641 4.48047C56.0312 4.69922 55.9648 4.96875 55.9648 5.28906V19ZM58.4258 6.32031V9.0625H50.1641V6.32031H58.4258ZM66.5234 6.32031V9.0625H58.8828V6.32031H66.5234ZM60.4883 3.16797H64.4375V14.8633C64.4375 15.1992 64.4766 15.4609 64.5547 15.6484C64.6328 15.8281 64.7656 15.957 64.9531 16.0352C65.1484 16.1055 65.4062 16.1406 65.7266 16.1406C65.9531 16.1406 66.1406 16.1367 66.2891 16.1289C66.4375 16.1133 66.5781 16.0938 66.7109 16.0703V18.8945C66.375 19.0039 66.0234 19.0859 65.6562 19.1406C65.2891 19.2031 64.8984 19.2344 64.4844 19.2344C63.6406 19.2344 62.918 19.1016 62.3164 18.8359C61.7227 18.5703 61.2695 18.1523 60.957 17.582C60.6445 17.0117 60.4883 16.2695 60.4883 15.3555V3.16797Z" fill="#3528CF" fill-opacity="0.78"/>
</svg>
